# xmcd
#
# Track frame offsets:
#	182
#	7540
#	23667
#	32425
#	51470
#	74845
#	86277
#	122465
#	130205
#	145835
#	154862
#	164347
#	177582
#	192210
#	213852
#	234435
#	249217
#
# Disc length: 3461 seconds
#
# Revision: 8
# Processed by: cddbd v1.5.1PL0 Copyright (c) Steve Scherf et al.
# Submitted via: dBpowerAMP V4.0
#
DISCID=d70d8311
DTITLE=Bill Engvall - Dorkfish
DYEAR=1998
DGENRE=Comedy
TTITLE0=Factory Outlet Malls
TTITLE1=Flying
TTITLE2=Smokers
TTITLE3=Weather And News
TTITLE4=Bungee Jumping And Parachuting
TTITLE5=My Daughter's Growing Up
TTITLE6=T-Ball And Indian Guides
TTITLE7=Minivan
TTITLE8=Discovery Channel
TTITLE9=Dorkfish
TTITLE10=Whale Watching
TTITLE11=Broke Food
TTITLE12=More Here's Your Sign
TTITLE13=Bronc Busting
TTITLE14=Deer Hunting
TTITLE15=I'm A Cowboy
TTITLE16=Here's Your Sign Christmas
EXTD=
EXTT0=
EXTT1=
EXTT2=
EXTT3=
EXTT4=
EXTT5=
EXTT6=
EXTT7=
EXTT8=
EXTT9=
EXTT10=
EXTT11=
EXTT12=
EXTT13=
EXTT14=
EXTT15=
EXTT16=
PLAYORDER=
